<?xml version="1.0" standalone="no"?>
<svg xmlns:xlink="http://www.w3.org/1999/xlink" id="wave" style="transform:rotate(0deg); transition: 0.3s" viewBox="0 0 1440 490" version="1.1" xmlns="http://www.w3.org/2000/svg"><defs><linearGradient id="sw-gradient-0" x1="0" x2="0" y1="1" y2="0"><stop stop-color="rgba(224, 170, 255, 1)" offset="0%"/><stop stop-color="rgba(157, 78, 221, 1)" offset="100%"/></linearGradient></defs><path style="transform:translate(0, 0px); opacity:1" fill="url(#sw-gradient-0)" d="M0,147L48,196C96,245,192,343,288,359.3C384,376,480,310,576,285.8C672,261,768,278,864,236.8C960,196,1056,98,1152,49C1248,0,1344,0,1440,73.5C1536,147,1632,294,1728,334.8C1824,376,1920,310,2016,253.2C2112,196,2208,147,2304,114.3C2400,82,2496,65,2592,57.2C2688,49,2784,49,2880,40.8C2976,33,3072,16,3168,81.7C3264,147,3360,294,3456,326.7C3552,359,3648,278,3744,253.2C3840,229,3936,261,4032,236.8C4128,212,4224,131,4320,81.7C4416,33,4512,16,4608,32.7C4704,49,4800,98,4896,106.2C4992,114,5088,82,5184,114.3C5280,147,5376,245,5472,310.3C5568,376,5664,408,5760,408.3C5856,408,5952,376,6048,375.7C6144,376,6240,408,6336,424.7C6432,441,6528,441,6624,408.3C6720,376,6816,310,6864,277.7L6912,245L6912,490L6864,490C6816,490,6720,490,6624,490C6528,490,6432,490,6336,490C6240,490,6144,490,6048,490C5952,490,5856,490,5760,490C5664,490,5568,490,5472,490C5376,490,5280,490,5184,490C5088,490,4992,490,4896,490C4800,490,4704,490,4608,490C4512,490,4416,490,4320,490C4224,490,4128,490,4032,490C3936,490,3840,490,3744,490C3648,490,3552,490,3456,490C3360,490,3264,490,3168,490C3072,490,2976,490,2880,490C2784,490,2688,490,2592,490C2496,490,2400,490,2304,490C2208,490,2112,490,2016,490C1920,490,1824,490,1728,490C1632,490,1536,490,1440,490C1344,490,1248,490,1152,490C1056,490,960,490,864,490C768,490,672,490,576,490C480,490,384,490,288,490C192,490,96,490,48,490L0,490Z"/><defs><linearGradient id="sw-gradient-1" x1="0" x2="0" y1="1" y2="0"><stop stop-color="rgba(90, 24, 154, 1)" offset="0%"/><stop stop-color="rgba(123, 44, 191, 1)" offset="100%"/></linearGradient></defs><path style="transform:translate(0, 50px); opacity:0.9" fill="url(#sw-gradient-1)" d="M0,49L48,106.2C96,163,192,278,288,277.7C384,278,480,163,576,163.3C672,163,768,278,864,310.3C960,343,1056,294,1152,236.8C1248,180,1344,114,1440,106.2C1536,98,1632,147,1728,138.8C1824,131,1920,65,2016,73.5C2112,82,2208,163,2304,163.3C2400,163,2496,82,2592,89.8C2688,98,2784,196,2880,212.3C2976,229,3072,163,3168,171.5C3264,180,3360,261,3456,302.2C3552,343,3648,343,3744,294C3840,245,3936,147,4032,106.2C4128,65,4224,82,4320,114.3C4416,147,4512,196,4608,196C4704,196,4800,147,4896,179.7C4992,212,5088,327,5184,318.5C5280,310,5376,180,5472,122.5C5568,65,5664,82,5760,81.7C5856,82,5952,65,6048,98C6144,131,6240,212,6336,228.7C6432,245,6528,196,6624,196C6720,196,6816,245,6864,269.5L6912,294L6912,490L6864,490C6816,490,6720,490,6624,490C6528,490,6432,490,6336,490C6240,490,6144,490,6048,490C5952,490,5856,490,5760,490C5664,490,5568,490,5472,490C5376,490,5280,490,5184,490C5088,490,4992,490,4896,490C4800,490,4704,490,4608,490C4512,490,4416,490,4320,490C4224,490,4128,490,4032,490C3936,490,3840,490,3744,490C3648,490,3552,490,3456,490C3360,490,3264,490,3168,490C3072,490,2976,490,2880,490C2784,490,2688,490,2592,490C2496,490,2400,490,2304,490C2208,490,2112,490,2016,490C1920,490,1824,490,1728,490C1632,490,1536,490,1440,490C1344,490,1248,490,1152,490C1056,490,960,490,864,490C768,490,672,490,576,490C480,490,384,490,288,490C192,490,96,490,48,490L0,490Z"/><defs><linearGradient id="sw-gradient-2" x1="0" x2="0" y1="1" y2="0"><stop stop-color="rgba(123, 44, 191, 1)" offset="0%"/><stop stop-color="rgba(157, 78, 221, 1)" offset="100%"/></linearGradient></defs><path style="transform:translate(0, 100px); opacity:0.8" fill="url(#sw-gradient-2)" d="M0,49L48,65.3C96,82,192,114,288,163.3C384,212,480,278,576,294C672,310,768,278,864,261.3C960,245,1056,245,1152,253.2C1248,261,1344,278,1440,302.2C1536,327,1632,359,1728,351.2C1824,343,1920,294,2016,285.8C2112,278,2208,310,2304,310.3C2400,310,2496,278,2592,236.8C2688,196,2784,147,2880,171.5C2976,196,3072,294,3168,343C3264,392,3360,392,3456,367.5C3552,343,3648,294,3744,261.3C3840,229,3936,212,4032,245C4128,278,4224,359,4320,383.8C4416,408,4512,376,4608,343C4704,310,4800,278,4896,228.7C4992,180,5088,114,5184,114.3C5280,114,5376,180,5472,236.8C5568,294,5664,343,5760,343C5856,343,5952,294,6048,245C6144,196,6240,147,6336,163.3C6432,180,6528,261,6624,269.5C6720,278,6816,212,6864,179.7L6912,147L6912,490L6864,490C6816,490,6720,490,6624,490C6528,490,6432,490,6336,490C6240,490,6144,490,6048,490C5952,490,5856,490,5760,490C5664,490,5568,490,5472,490C5376,490,5280,490,5184,490C5088,490,4992,490,4896,490C4800,490,4704,490,4608,490C4512,490,4416,490,4320,490C4224,490,4128,490,4032,490C3936,490,3840,490,3744,490C3648,490,3552,490,3456,490C3360,490,3264,490,3168,490C3072,490,2976,490,2880,490C2784,490,2688,490,2592,490C2496,490,2400,490,2304,490C2208,490,2112,490,2016,490C1920,490,1824,490,1728,490C1632,490,1536,490,1440,490C1344,490,1248,490,1152,490C1056,490,960,490,864,490C768,490,672,490,576,490C480,490,384,490,288,490C192,490,96,490,48,490L0,490Z"/></svg>